<?xml version="1.0" encoding="utf-8"?><svg width="1368" height="292" viewBox="0 0 1368 292" xmlns="http://www.w3.org/2000/svg" xmlns:xlink="http://www.w3.org/1999/xlink"><svg version="1.1" id="decor--decor-1" viewBox="-1 -1 1368 146" xml:space="preserve" width="1368" height="146" xmlns="http://www.w3.org/2000/svg"><style>.ast0{fill:#fff}</style><path class="ast0" d="M.33 52.13s753.55 4.13 934.5 88.05c49.61-16.97 57.18-20.64 108.1-29.58 0 0 66.15-9.4 98.52-11.85 32.38-2.45 65.45-6.73 77.98-9.48 12.53-2.75 75.55-23.24 146.57-89.58v145.99H.33V52.13z"/></svg><svg version="1.1" id="decor--decor-2" y="146" viewBox="-1 -1 1368 146" xml:space="preserve" width="1368" height="146" xmlns="http://www.w3.org/2000/svg"><style>.bst0{fill:#00a19c}</style><path class="bst0" d="M.3 52.1s753.5 4.1 934.5 88.1c49.6-17 57.2-20.6 108.1-29.6 0 0 66.2-9.4 98.5-11.8 32.4-2.4 65.4-6.7 78-9.5S1295 66 1366-.3v146H.3V52.1z"/></svg></svg>